<svg xmlns="http://www.w3.org/2000/svg" xmlns:xlink="http://www.w3.org/1999/xlink" width="538.583" height="314.291"><defs><radialGradient id="b" cx="106.869" cy="360.171" r="80.394" gradientUnits="userSpaceOnUse"><stop offset="0" stop-color="#FFCE4E"/><stop offset="1" stop-color="#F5C337"/></radialGradient><radialGradient id="c" cx="106.87" cy="360.172" r="80.392" gradientUnits="userSpaceOnUse"><stop offset="0" stop-color="#0DA960"/><stop offset="1" stop-color="#05924B"/></radialGradient><radialGradient id="d" cx="106.869" cy="360.173" r="80.39" gradientUnits="userSpaceOnUse"><stop offset="0" stop-color="#577EC0"/><stop offset="1" stop-color="#557EBF"/></radialGradient><radialGradient id="e" cx="106.871" cy="360.173" r="80.386" gradientUnits="userSpaceOnUse"><stop offset="0" stop-color="#E04B3F"/><stop offset="1" stop-color="#CD382D"/></radialGradient><linearGradient id="f" gradientUnits="userSpaceOnUse" x1="141.17" y1="404.862" x2="121.803" y2="404.862"><stop offset="0" stop-color="#231F20" stop-opacity=".2"/><stop offset="1" stop-color="#F2F2F2" stop-opacity=".25"/></linearGradient><radialGradient id="a" cx="128.466" cy="395.995" r="28.153" gradientUnits="userSpaceOnUse"><stop offset="0" stop-color="#FFF" stop-opacity=".1"/><stop offset=".09" stop-color="#FFF" stop-opacity=".091"/><stop offset="1" stop-color="#FFF" stop-opacity="0"/></radialGradient><radialGradient r="28.153" cy="395.995" cx="128.466" gradientUnits="userSpaceOnUse" id="g" xlink:href="#a"/><radialGradient r="28.153" cy="395.995" cx="128.466" gradientUnits="userSpaceOnUse" id="h" xlink:href="#a"/></defs><path d="M482.326 235.608l1.004-.28v9.99c-86.145 23.354-148.348 16.922-234.362.232-74.278-14.42-130.773-24.963-205.134-.125v-10.168c74.55-24.24 132.72-13.572 207.058.855 84.025 16.31 145.776 23.092 231.434-.505" fill="#5881ca"/><path d="M357.272 238.483l-.338-31.592c0-9.484-7.882-17.18-17.6-17.18-9.72 0-17.597 7.696-17.597 17.187l-.315 28.64c-18.953-2.204-37.347-5.268-55.456-8.517 7.775-20.972 11.707-37.703 13.334-61.532h120.136c1.716 24.82 7.43 48.204 16.054 71.468-20.2 2.043-39.533 2.358-58.218 1.527M303.723 95.67h-6.385l-3.19 5.393-3.19-5.393h-6.377l3.19-5.398-3.19-5.393h6.38l3.19-5.4 3.188 5.4h6.385l-3.195 5.392 3.195 5.398M394.156 95.67h-6.38l-3.188 5.393-3.19-5.393h-6.38l3.19-5.398-3.19-5.393h6.38l3.19-5.4 3.19 5.4h6.378l-3.19 5.392 3.19 5.398" fill="#ed1c24"/><path d="M322.96 97.963v-.546c0-7.56 5.417-13.875 12.646-15.52V75h-5.934v-6.43h5.934v-6.617h7.525v6.616h5.934V75h-5.933v6.88c7.698 1.662 12.218 8.386 12.616 16.083h6.355v8.232h-7.126v44.07h15.395v-44.07h28.437v44.07h8.962v8.505H270.972v-8.505h8.957v-44.07h28.444v44.07h15.39v-44.07h-7.13v-8.232h6.327" fill="#ed1c24"/><g><path d="M133.117 404.787l-15.423 25.62h7.79c1.843 0 4.133-1.294 5.084-2.882l6.562-10.918c.774-1.602.748-3.93-.138-5.406l-3.875-6.413z" fill="url(#b)" transform="translate(-334.852 -1359.635) scale(3.84738)"/><path d="M126.067 393.117c.95 1.582.95 4.174 0 5.762l-17.322 28.96c-.67 1.432.026 2.566 1.745 2.566h7.204l15.423-25.62-7.05-11.67z" fill="url(#c)" transform="translate(-334.852 -1359.635) scale(3.84738)"/><path d="M110.49 361.584c-1.85 0-2.585 1.3-1.634 2.88l28.136 46.737c.886 1.478.912 3.806.138 5.407l6.84-11.385-26.27-43.64h-7.21z" fill="url(#d)" transform="translate(-334.852 -1359.635) scale(3.84738)"/><path d="M147.778 393.117l-17.21-28.652c-.95-1.582-3.24-2.88-5.085-2.88h-7.785l26.27 43.638 3.81-6.344c.952-1.59.952-4.18 0-5.763z" fill="url(#e)" transform="translate(-334.852 -1359.635) scale(3.84738)"/><path d="M136.992 411.2l-10.925-18.083c.95 1.582.95 4.174 0 5.762l-3.846 6.403 14.91 11.324c.774-1.6.748-3.93-.138-5.406z" fill="url(#f)" transform="translate(-334.852 -1359.635) scale(3.84738)"/><g><path d="M147.778 393.117l-17.21-28.652c-.95-1.582-3.24-2.88-5.085-2.88H110.49c-1.85 0-2.585 1.298-1.634 2.88l17.21 28.652c.952 1.582.952 4.174 0 5.762l-17.32 28.96c-.67 1.432.025 2.566 1.744 2.566h14.994c1.843 0 4.133-1.293 5.084-2.88l13.4-22.304 3.81-6.344c.952-1.587.952-4.18 0-5.76z" fill="url(#g)" transform="translate(-334.852 -1359.635) scale(3.84738)"/><path d="M147.778 393.117l-17.21-28.652c-.95-1.582-3.24-2.88-5.085-2.88H110.49c-1.85 0-2.585 1.298-1.634 2.88l17.21 28.652c.952 1.582.952 4.174 0 5.762l-17.32 28.96c-.67 1.432.025 2.566 1.744 2.566h14.994c1.843 0 4.133-1.293 5.084-2.88l13.4-22.304 3.81-6.344c.952-1.587.952-4.18 0-5.76z" fill="url(#h)" transform="translate(-334.852 -1359.635) scale(3.84738)"/></g></g></svg>